# xmcd CD Database Entry
#
# Track frame offsets:
# 150
# 13348
# 31223
# 47098
# 70358
#
# Disc length: 1102 seconds
#
# Revision: 1
# Processed by: cddbd v1.4PL0 Copyright (c) Steve Scherf et al.
# Submitted via: RSJCDWriter_freedb_lib_OS/2 1.02
#
DISCID=3f044c05
DTITLE=Sue's Blues - wild women
DYEAR=1900
DGENRE=
TTITLE0=Why Don't You Do Right?
TTITLE1=Mama, He Treats Your Daughter Mean
TTITLE2=Black Rat Swing
TTITLE3=Loser
TTITLE4=Wild Women Never Get The Blues
EXTD=p 1994 Last Buzz Record Co.\nBUZZ-7001
EXTT0=
EXTT1=
EXTT2=
EXTT3=
EXTT4=
PLAYORDER=
